<mxfile host="app.diagrams.net" agent="Mozilla/5.0 (Windows NT 10.0; Win64; x64) AppleWebKit/537.36 (KHTML, like Gecko) Chrome/126.0.0.0 Safari/537.36" version="24.8.2">
  <diagram name="第 1 页" id="_HwajRiNFtwBDf4wMEr2">
    <mxGraphModel dx="2901" dy="1193" grid="1" gridSize="10" guides="1" tooltips="1" connect="1" arrows="1" fold="1" page="1" pageScale="1" pageWidth="827" pageHeight="1169" math="0" shadow="0">
      <root>
        <mxCell id="0" />
        <mxCell id="1" parent="0" />
        <mxCell id="nmwjDRBDZmFMRTuQTV6h-51" value="SE-SDK" style="shape=umlLifeline;perimeter=lifelinePerimeter;whiteSpace=wrap;html=1;container=0;dropTarget=0;collapsible=0;recursiveResize=0;outlineConnect=0;portConstraint=eastwest;newEdgeStyle={&quot;edgeStyle&quot;:&quot;elbowEdgeStyle&quot;,&quot;elbow&quot;:&quot;vertical&quot;,&quot;curved&quot;:0,&quot;rounded&quot;:0};" parent="1" vertex="1">
          <mxGeometry x="-563" y="40" width="100" height="880" as="geometry" />
        </mxCell>
        <mxCell id="nmwjDRBDZmFMRTuQTV6h-53" value="SDK" style="shape=umlLifeline;perimeter=lifelinePerimeter;whiteSpace=wrap;html=1;container=0;dropTarget=0;collapsible=0;recursiveResize=0;outlineConnect=0;portConstraint=eastwest;newEdgeStyle={&quot;edgeStyle&quot;:&quot;elbowEdgeStyle&quot;,&quot;elbow&quot;:&quot;vertical&quot;,&quot;curved&quot;:0,&quot;rounded&quot;:0};" parent="1" vertex="1">
          <mxGeometry x="-372" y="40" width="100" height="880" as="geometry" />
        </mxCell>
        <mxCell id="nmwjDRBDZmFMRTuQTV6h-232" value="" style="html=1;points=[];perimeter=orthogonalPerimeter;outlineConnect=0;targetShapes=umlLifeline;portConstraint=eastwest;newEdgeStyle={&quot;edgeStyle&quot;:&quot;elbowEdgeStyle&quot;,&quot;elbow&quot;:&quot;vertical&quot;,&quot;curved&quot;:0,&quot;rounded&quot;:0};" parent="nmwjDRBDZmFMRTuQTV6h-53" vertex="1">
          <mxGeometry x="44" y="751" width="10" height="80" as="geometry" />
        </mxCell>
        <mxCell id="nmwjDRBDZmFMRTuQTV6h-57" value="DeviceOEM-Server" style="shape=umlLifeline;perimeter=lifelinePerimeter;whiteSpace=wrap;html=1;container=0;dropTarget=0;collapsible=0;recursiveResize=0;outlineConnect=0;portConstraint=eastwest;newEdgeStyle={&quot;edgeStyle&quot;:&quot;elbowEdgeStyle&quot;,&quot;elbow&quot;:&quot;vertical&quot;,&quot;curved&quot;:0,&quot;rounded&quot;:0};" parent="1" vertex="1">
          <mxGeometry x="-37" y="40" width="140" height="880" as="geometry" />
        </mxCell>
        <mxCell id="nmwjDRBDZmFMRTuQTV6h-59" value="VehicleOEM-Server" style="shape=umlLifeline;perimeter=lifelinePerimeter;whiteSpace=wrap;html=1;container=0;dropTarget=0;collapsible=0;recursiveResize=0;outlineConnect=0;portConstraint=eastwest;newEdgeStyle={&quot;edgeStyle&quot;:&quot;elbowEdgeStyle&quot;,&quot;elbow&quot;:&quot;vertical&quot;,&quot;curved&quot;:0,&quot;rounded&quot;:0};" parent="1" vertex="1">
          <mxGeometry x="193" y="40" width="140" height="880" as="geometry" />
        </mxCell>
        <mxCell id="nmwjDRBDZmFMRTuQTV6h-62" value="Vehicle" style="shape=umlLifeline;perimeter=lifelinePerimeter;whiteSpace=wrap;html=1;container=0;dropTarget=0;collapsible=0;recursiveResize=0;outlineConnect=0;portConstraint=eastwest;newEdgeStyle={&quot;edgeStyle&quot;:&quot;elbowEdgeStyle&quot;,&quot;elbow&quot;:&quot;vertical&quot;,&quot;curved&quot;:0,&quot;rounded&quot;:0};" parent="1" vertex="1">
          <mxGeometry x="433" y="40" width="140" height="880" as="geometry" />
        </mxCell>
        <mxCell id="nmwjDRBDZmFMRTuQTV6h-88" value="SDK-Server" style="shape=umlLifeline;perimeter=lifelinePerimeter;whiteSpace=wrap;html=1;container=0;dropTarget=0;collapsible=0;recursiveResize=0;outlineConnect=0;portConstraint=eastwest;newEdgeStyle={&quot;edgeStyle&quot;:&quot;elbowEdgeStyle&quot;,&quot;elbow&quot;:&quot;vertical&quot;,&quot;curved&quot;:0,&quot;rounded&quot;:0};" parent="1" vertex="1">
          <mxGeometry x="-198" y="40" width="103" height="880" as="geometry" />
        </mxCell>
        <mxCell id="nmwjDRBDZmFMRTuQTV6h-181" value="" style="html=1;points=[];perimeter=orthogonalPerimeter;outlineConnect=0;targetShapes=umlLifeline;portConstraint=eastwest;newEdgeStyle={&quot;edgeStyle&quot;:&quot;elbowEdgeStyle&quot;,&quot;elbow&quot;:&quot;vertical&quot;,&quot;curved&quot;:0,&quot;rounded&quot;:0};" parent="1" vertex="1">
          <mxGeometry x="-516" y="167" width="10" height="90" as="geometry" />
        </mxCell>
        <mxCell id="nmwjDRBDZmFMRTuQTV6h-182" value="" style="html=1;points=[];perimeter=orthogonalPerimeter;outlineConnect=0;targetShapes=umlLifeline;portConstraint=eastwest;newEdgeStyle={&quot;edgeStyle&quot;:&quot;elbowEdgeStyle&quot;,&quot;elbow&quot;:&quot;vertical&quot;,&quot;curved&quot;:0,&quot;rounded&quot;:0};" parent="1" vertex="1">
          <mxGeometry x="-326" y="111" width="10" height="500" as="geometry" />
        </mxCell>
        <mxCell id="nmwjDRBDZmFMRTuQTV6h-184" value="车控指令签名请求" style="html=1;verticalAlign=bottom;endArrow=block;edgeStyle=elbowEdgeStyle;elbow=horizontal;curved=0;rounded=0;" parent="1" edge="1">
          <mxGeometry relative="1" as="geometry">
            <mxPoint x="-328" y="181" as="sourcePoint" />
            <Array as="points" />
            <mxPoint x="-503" y="181" as="targetPoint" />
          </mxGeometry>
        </mxCell>
        <mxCell id="nmwjDRBDZmFMRTuQTV6h-185" value="返回签名数据" style="html=1;verticalAlign=bottom;endArrow=open;dashed=1;endSize=8;edgeStyle=elbowEdgeStyle;elbow=vertical;curved=0;rounded=0;" parent="1" edge="1">
          <mxGeometry x="0.0057" relative="1" as="geometry">
            <mxPoint x="-326" y="242" as="targetPoint" />
            <Array as="points">
              <mxPoint x="-411" y="242" />
            </Array>
            <mxPoint x="-501" y="242" as="sourcePoint" />
            <mxPoint as="offset" />
          </mxGeometry>
        </mxCell>
        <mxCell id="nmwjDRBDZmFMRTuQTV6h-186" value="" style="html=1;points=[];perimeter=orthogonalPerimeter;outlineConnect=0;targetShapes=umlLifeline;portConstraint=eastwest;newEdgeStyle={&quot;edgeStyle&quot;:&quot;elbowEdgeStyle&quot;,&quot;elbow&quot;:&quot;vertical&quot;,&quot;curved&quot;:0,&quot;rounded&quot;:0};" parent="1" vertex="1">
          <mxGeometry x="30" y="298" width="10" height="170" as="geometry" />
        </mxCell>
        <mxCell id="nmwjDRBDZmFMRTuQTV6h-187" value="" style="html=1;points=[];perimeter=orthogonalPerimeter;outlineConnect=0;targetShapes=umlLifeline;portConstraint=eastwest;newEdgeStyle={&quot;edgeStyle&quot;:&quot;elbowEdgeStyle&quot;,&quot;elbow&quot;:&quot;vertical&quot;,&quot;curved&quot;:0,&quot;rounded&quot;:0};" parent="1" vertex="1">
          <mxGeometry x="30" y="519" width="10" height="60" as="geometry" />
        </mxCell>
        <mxCell id="nmwjDRBDZmFMRTuQTV6h-188" value="" style="html=1;points=[];perimeter=orthogonalPerimeter;outlineConnect=0;targetShapes=umlLifeline;portConstraint=eastwest;newEdgeStyle={&quot;edgeStyle&quot;:&quot;elbowEdgeStyle&quot;,&quot;elbow&quot;:&quot;vertical&quot;,&quot;curved&quot;:0,&quot;rounded&quot;:0};" parent="1" vertex="1">
          <mxGeometry x="260" y="368" width="10" height="103" as="geometry" />
        </mxCell>
        <mxCell id="nmwjDRBDZmFMRTuQTV6h-189" value="" style="html=1;points=[];perimeter=orthogonalPerimeter;outlineConnect=0;targetShapes=umlLifeline;portConstraint=eastwest;newEdgeStyle={&quot;edgeStyle&quot;:&quot;elbowEdgeStyle&quot;,&quot;elbow&quot;:&quot;vertical&quot;,&quot;curved&quot;:0,&quot;rounded&quot;:0};" parent="1" vertex="1">
          <mxGeometry x="260" y="495" width="10" height="86" as="geometry" />
        </mxCell>
        <mxCell id="nmwjDRBDZmFMRTuQTV6h-190" value="" style="html=1;points=[];perimeter=orthogonalPerimeter;outlineConnect=0;targetShapes=umlLifeline;portConstraint=eastwest;newEdgeStyle={&quot;edgeStyle&quot;:&quot;elbowEdgeStyle&quot;,&quot;elbow&quot;:&quot;vertical&quot;,&quot;curved&quot;:0,&quot;rounded&quot;:0};" parent="1" vertex="1">
          <mxGeometry x="31" y="648" width="10" height="103" as="geometry" />
        </mxCell>
        <mxCell id="nmwjDRBDZmFMRTuQTV6h-191" value="" style="html=1;points=[];perimeter=orthogonalPerimeter;outlineConnect=0;targetShapes=umlLifeline;portConstraint=eastwest;newEdgeStyle={&quot;edgeStyle&quot;:&quot;elbowEdgeStyle&quot;,&quot;elbow&quot;:&quot;vertical&quot;,&quot;curved&quot;:0,&quot;rounded&quot;:0};" parent="1" vertex="1">
          <mxGeometry x="261" y="624" width="10" height="137" as="geometry" />
        </mxCell>
        <mxCell id="nmwjDRBDZmFMRTuQTV6h-192" value="车况上报" style="html=1;verticalAlign=bottom;endArrow=block;edgeStyle=elbowEdgeStyle;elbow=vertical;curved=0;rounded=0;" parent="1" edge="1">
          <mxGeometry relative="1" as="geometry">
            <mxPoint x="500" y="633" as="sourcePoint" />
            <Array as="points" />
            <mxPoint x="275" y="633" as="targetPoint" />
          </mxGeometry>
        </mxCell>
        <mxCell id="nmwjDRBDZmFMRTuQTV6h-193" value="返回" style="html=1;verticalAlign=bottom;endArrow=open;dashed=1;endSize=8;edgeStyle=elbowEdgeStyle;elbow=vertical;curved=0;rounded=0;" parent="1" edge="1">
          <mxGeometry x="0.0057" relative="1" as="geometry">
            <mxPoint x="499.5" y="650" as="targetPoint" />
            <Array as="points">
              <mxPoint x="360" y="650" />
            </Array>
            <mxPoint x="270" y="650" as="sourcePoint" />
            <mxPoint as="offset" />
          </mxGeometry>
        </mxCell>
        <mxCell id="nmwjDRBDZmFMRTuQTV6h-194" value="车况上报" style="html=1;verticalAlign=bottom;endArrow=block;edgeStyle=elbowEdgeStyle;elbow=vertical;curved=0;rounded=0;" parent="1" edge="1">
          <mxGeometry relative="1" as="geometry">
            <mxPoint x="256" y="661" as="sourcePoint" />
            <Array as="points" />
            <mxPoint x="46" y="661" as="targetPoint" />
          </mxGeometry>
        </mxCell>
        <mxCell id="nmwjDRBDZmFMRTuQTV6h-195" value="车况上报" style="html=1;verticalAlign=bottom;endArrow=block;edgeStyle=elbowEdgeStyle;elbow=vertical;curved=0;rounded=0;" parent="1" edge="1">
          <mxGeometry relative="1" as="geometry">
            <mxPoint x="31" y="672" as="sourcePoint" />
            <Array as="points" />
            <mxPoint x="-138.5" y="672" as="targetPoint" />
          </mxGeometry>
        </mxCell>
        <mxCell id="nmwjDRBDZmFMRTuQTV6h-196" value="返回" style="html=1;verticalAlign=bottom;endArrow=open;dashed=1;endSize=8;edgeStyle=elbowEdgeStyle;elbow=vertical;curved=0;rounded=0;" parent="1" edge="1">
          <mxGeometry x="0.0057" relative="1" as="geometry">
            <mxPoint x="26" y="731" as="targetPoint" />
            <Array as="points">
              <mxPoint x="-44" y="731" />
            </Array>
            <mxPoint x="-134" y="731" as="sourcePoint" />
            <mxPoint as="offset" />
          </mxGeometry>
        </mxCell>
        <mxCell id="nmwjDRBDZmFMRTuQTV6h-197" value="返回" style="html=1;verticalAlign=bottom;endArrow=open;dashed=1;endSize=8;edgeStyle=elbowEdgeStyle;elbow=vertical;curved=0;rounded=0;" parent="1" edge="1">
          <mxGeometry x="0.0057" relative="1" as="geometry">
            <mxPoint x="261" y="736" as="targetPoint" />
            <Array as="points">
              <mxPoint x="136" y="736" />
            </Array>
            <mxPoint x="46" y="736" as="sourcePoint" />
            <mxPoint as="offset" />
          </mxGeometry>
        </mxCell>
        <mxCell id="nmwjDRBDZmFMRTuQTV6h-199" value="" style="html=1;points=[];perimeter=orthogonalPerimeter;outlineConnect=0;targetShapes=umlLifeline;portConstraint=eastwest;newEdgeStyle={&quot;edgeStyle&quot;:&quot;elbowEdgeStyle&quot;,&quot;elbow&quot;:&quot;vertical&quot;,&quot;curved&quot;:0,&quot;rounded&quot;:0};" parent="1" vertex="1">
          <mxGeometry x="500" y="376" width="10" height="165" as="geometry" />
        </mxCell>
        <mxCell id="nmwjDRBDZmFMRTuQTV6h-200" value="收到命令" style="html=1;align=left;spacingLeft=2;endArrow=block;rounded=0;edgeStyle=orthogonalEdgeStyle;curved=0;rounded=0;fontFamily=Helvetica;fontSize=12;fontColor=default;" parent="1" edge="1">
          <mxGeometry relative="1" as="geometry">
            <mxPoint x="510" y="403" as="sourcePoint" />
            <Array as="points">
              <mxPoint x="545" y="403" />
              <mxPoint x="545" y="433" />
            </Array>
            <mxPoint x="510" y="433" as="targetPoint" />
          </mxGeometry>
        </mxCell>
        <mxCell id="nmwjDRBDZmFMRTuQTV6h-201" value="" style="html=1;points=[];perimeter=orthogonalPerimeter;outlineConnect=0;targetShapes=umlLifeline;portConstraint=eastwest;newEdgeStyle={&quot;edgeStyle&quot;:&quot;elbowEdgeStyle&quot;,&quot;elbow&quot;:&quot;vertical&quot;,&quot;curved&quot;:0,&quot;rounded&quot;:0};" parent="1" vertex="1">
          <mxGeometry x="500" y="609" width="10" height="60" as="geometry" />
        </mxCell>
        <mxCell id="nmwjDRBDZmFMRTuQTV6h-202" value="&lt;font style=&quot;font-size: 11px;&quot;&gt;请求设备合法性&lt;/font&gt;&lt;span style=&quot;font-size: 11px;&quot;&gt;验证&lt;/span&gt;" style="html=1;align=left;spacingLeft=2;endArrow=block;rounded=0;edgeStyle=orthogonalEdgeStyle;curved=0;rounded=0;fontFamily=Helvetica;fontSize=12;fontColor=default;" parent="1" edge="1">
          <mxGeometry relative="1" as="geometry">
            <mxPoint x="40" y="319" as="sourcePoint" />
            <Array as="points">
              <mxPoint x="70" y="319" />
              <mxPoint x="70" y="349" />
            </Array>
            <mxPoint x="40" y="349" as="targetPoint" />
          </mxGeometry>
        </mxCell>
        <mxCell id="nmwjDRBDZmFMRTuQTV6h-203" value="数据签名" style="html=1;align=left;spacingLeft=2;endArrow=block;rounded=0;edgeStyle=orthogonalEdgeStyle;curved=0;rounded=0;fontFamily=Helvetica;fontSize=12;fontColor=default;" parent="1" edge="1">
          <mxGeometry relative="1" as="geometry">
            <mxPoint x="-501" y="197" as="sourcePoint" />
            <Array as="points">
              <mxPoint x="-471" y="197" />
              <mxPoint x="-471" y="227" />
            </Array>
            <mxPoint x="-501" y="227" as="targetPoint" />
          </mxGeometry>
        </mxCell>
        <mxCell id="nmwjDRBDZmFMRTuQTV6h-204" value="" style="endArrow=classic;html=1;rounded=0;" parent="1" edge="1">
          <mxGeometry width="50" height="50" relative="1" as="geometry">
            <mxPoint x="45" y="378" as="sourcePoint" />
            <mxPoint x="260" y="378" as="targetPoint" />
          </mxGeometry>
        </mxCell>
        <mxCell id="nmwjDRBDZmFMRTuQTV6h-205" value="车控命令" style="edgeLabel;html=1;align=center;verticalAlign=middle;resizable=0;points=[];" parent="nmwjDRBDZmFMRTuQTV6h-204" vertex="1" connectable="0">
          <mxGeometry x="-0.1703" y="2" relative="1" as="geometry">
            <mxPoint as="offset" />
          </mxGeometry>
        </mxCell>
        <mxCell id="nmwjDRBDZmFMRTuQTV6h-206" value="返回" style="html=1;verticalAlign=bottom;endArrow=open;dashed=1;endSize=8;edgeStyle=elbowEdgeStyle;elbow=vertical;curved=0;rounded=0;" parent="1" edge="1">
          <mxGeometry relative="1" as="geometry">
            <mxPoint x="40" y="450" as="targetPoint" />
            <Array as="points" />
            <mxPoint x="255" y="450" as="sourcePoint" />
          </mxGeometry>
        </mxCell>
        <mxCell id="nmwjDRBDZmFMRTuQTV6h-207" value="返回" style="html=1;verticalAlign=bottom;endArrow=open;dashed=1;endSize=8;edgeStyle=elbowEdgeStyle;elbow=vertical;curved=0;rounded=0;" parent="1" edge="1">
          <mxGeometry relative="1" as="geometry">
            <mxPoint x="-138" y="461" as="targetPoint" />
            <Array as="points" />
            <mxPoint x="23" y="461" as="sourcePoint" />
          </mxGeometry>
        </mxCell>
        <mxCell id="nmwjDRBDZmFMRTuQTV6h-208" value="车控执行结果" style="html=1;align=left;spacingLeft=2;endArrow=block;rounded=0;edgeStyle=orthogonalEdgeStyle;curved=0;rounded=0;fontFamily=Helvetica;fontSize=12;fontColor=default;" parent="1" edge="1">
          <mxGeometry relative="1" as="geometry">
            <mxPoint x="510" y="462" as="sourcePoint" />
            <Array as="points">
              <mxPoint x="545" y="462" />
              <mxPoint x="545" y="492" />
            </Array>
            <mxPoint x="510" y="492" as="targetPoint" />
          </mxGeometry>
        </mxCell>
        <mxCell id="nmwjDRBDZmFMRTuQTV6h-209" value="" style="endArrow=classic;html=1;rounded=0;" parent="1" edge="1">
          <mxGeometry width="50" height="50" relative="1" as="geometry">
            <mxPoint x="270" y="391" as="sourcePoint" />
            <mxPoint x="500" y="391" as="targetPoint" />
          </mxGeometry>
        </mxCell>
        <mxCell id="nmwjDRBDZmFMRTuQTV6h-210" value="车控命令" style="edgeLabel;html=1;align=center;verticalAlign=middle;resizable=0;points=[];" parent="nmwjDRBDZmFMRTuQTV6h-209" vertex="1" connectable="0">
          <mxGeometry x="-0.1703" y="2" relative="1" as="geometry">
            <mxPoint x="10" as="offset" />
          </mxGeometry>
        </mxCell>
        <mxCell id="nmwjDRBDZmFMRTuQTV6h-211" value="命令已经收到" style="html=1;verticalAlign=bottom;endArrow=open;dashed=1;endSize=8;edgeStyle=elbowEdgeStyle;elbow=vertical;curved=0;rounded=0;" parent="1" edge="1">
          <mxGeometry relative="1" as="geometry">
            <mxPoint x="270" y="441" as="targetPoint" />
            <Array as="points" />
            <mxPoint x="500" y="441" as="sourcePoint" />
          </mxGeometry>
        </mxCell>
        <mxCell id="nmwjDRBDZmFMRTuQTV6h-212" value="准备车控指令" style="html=1;align=left;spacingLeft=2;endArrow=block;rounded=0;edgeStyle=orthogonalEdgeStyle;curved=0;rounded=0;fontFamily=Helvetica;fontSize=12;fontColor=default;" parent="1" edge="1">
          <mxGeometry relative="1" as="geometry">
            <mxPoint x="-315" y="121" as="sourcePoint" />
            <Array as="points">
              <mxPoint x="-285" y="121" />
              <mxPoint x="-285" y="151" />
            </Array>
            <mxPoint x="-315" y="151" as="targetPoint" />
          </mxGeometry>
        </mxCell>
        <mxCell id="nmwjDRBDZmFMRTuQTV6h-213" value="" style="endArrow=classic;html=1;rounded=0;" parent="1" edge="1">
          <mxGeometry width="50" height="50" relative="1" as="geometry">
            <mxPoint x="-315" y="252" as="sourcePoint" />
            <mxPoint x="-155" y="252" as="targetPoint" />
          </mxGeometry>
        </mxCell>
        <mxCell id="nmwjDRBDZmFMRTuQTV6h-214" value="车控命令请求" style="edgeLabel;html=1;align=center;verticalAlign=middle;resizable=0;points=[];" parent="nmwjDRBDZmFMRTuQTV6h-213" vertex="1" connectable="0">
          <mxGeometry x="-0.1703" y="2" relative="1" as="geometry">
            <mxPoint x="10" y="-3" as="offset" />
          </mxGeometry>
        </mxCell>
        <mxCell id="nmwjDRBDZmFMRTuQTV6h-215" value="&lt;font style=&quot;font-size: 11px;&quot;&gt;用户合法性的&lt;/font&gt;&lt;span style=&quot;font-size: 11px;&quot;&gt;验证&lt;/span&gt;" style="html=1;align=left;spacingLeft=2;endArrow=block;rounded=0;edgeStyle=orthogonalEdgeStyle;curved=0;rounded=0;fontFamily=Helvetica;fontSize=12;fontColor=default;" parent="1" edge="1">
          <mxGeometry relative="1" as="geometry">
            <mxPoint x="-135" y="261" as="sourcePoint" />
            <Array as="points">
              <mxPoint x="-105" y="261" />
              <mxPoint x="-105" y="291" />
            </Array>
            <mxPoint x="-135" y="291" as="targetPoint" />
          </mxGeometry>
        </mxCell>
        <mxCell id="nmwjDRBDZmFMRTuQTV6h-216" value="" style="endArrow=classic;html=1;rounded=0;" parent="1" edge="1">
          <mxGeometry width="50" height="50" relative="1" as="geometry">
            <mxPoint x="-135" y="313" as="sourcePoint" />
            <mxPoint x="25" y="313" as="targetPoint" />
          </mxGeometry>
        </mxCell>
        <mxCell id="nmwjDRBDZmFMRTuQTV6h-217" value="车控命令请求" style="edgeLabel;html=1;align=center;verticalAlign=middle;resizable=0;points=[];" parent="nmwjDRBDZmFMRTuQTV6h-216" vertex="1" connectable="0">
          <mxGeometry x="-0.1703" y="2" relative="1" as="geometry">
            <mxPoint x="10" y="-3" as="offset" />
          </mxGeometry>
        </mxCell>
        <mxCell id="nmwjDRBDZmFMRTuQTV6h-218" value="车控执行结果" style="html=1;verticalAlign=bottom;endArrow=block;edgeStyle=elbowEdgeStyle;elbow=vertical;curved=0;rounded=0;" parent="1" edge="1">
          <mxGeometry relative="1" as="geometry">
            <mxPoint x="497" y="504" as="sourcePoint" />
            <Array as="points" />
            <mxPoint x="272" y="504" as="targetPoint" />
          </mxGeometry>
        </mxCell>
        <mxCell id="nmwjDRBDZmFMRTuQTV6h-219" value="返回" style="html=1;verticalAlign=bottom;endArrow=open;dashed=1;endSize=8;edgeStyle=elbowEdgeStyle;elbow=vertical;curved=0;rounded=0;" parent="1" edge="1">
          <mxGeometry x="0.0057" relative="1" as="geometry">
            <mxPoint x="499.5" y="525" as="targetPoint" />
            <Array as="points">
              <mxPoint x="360" y="525" />
            </Array>
            <mxPoint x="270" y="525" as="sourcePoint" />
            <mxPoint as="offset" />
          </mxGeometry>
        </mxCell>
        <mxCell id="nmwjDRBDZmFMRTuQTV6h-220" value="车控执行结果" style="html=1;verticalAlign=bottom;endArrow=block;edgeStyle=elbowEdgeStyle;elbow=vertical;curved=0;rounded=0;" parent="1" edge="1">
          <mxGeometry relative="1" as="geometry">
            <mxPoint x="255" y="532" as="sourcePoint" />
            <Array as="points" />
            <mxPoint x="45" y="532" as="targetPoint" />
          </mxGeometry>
        </mxCell>
        <mxCell id="nmwjDRBDZmFMRTuQTV6h-222" value="车控执行结果" style="html=1;verticalAlign=bottom;endArrow=block;edgeStyle=elbowEdgeStyle;elbow=vertical;curved=0;rounded=0;" parent="1" edge="1">
          <mxGeometry relative="1" as="geometry">
            <mxPoint x="30" y="543" as="sourcePoint" />
            <Array as="points" />
            <mxPoint x="-139.5" y="543" as="targetPoint" />
          </mxGeometry>
        </mxCell>
        <mxCell id="nmwjDRBDZmFMRTuQTV6h-223" value="返回" style="html=1;verticalAlign=bottom;endArrow=open;dashed=1;endSize=8;edgeStyle=elbowEdgeStyle;elbow=vertical;curved=0;rounded=0;" parent="1" edge="1">
          <mxGeometry x="0.0057" relative="1" as="geometry">
            <mxPoint x="25" y="563" as="targetPoint" />
            <Array as="points">
              <mxPoint x="-45" y="563" />
            </Array>
            <mxPoint x="-135" y="563" as="sourcePoint" />
            <mxPoint as="offset" />
          </mxGeometry>
        </mxCell>
        <mxCell id="nmwjDRBDZmFMRTuQTV6h-224" value="返回" style="html=1;verticalAlign=bottom;endArrow=open;dashed=1;endSize=8;edgeStyle=elbowEdgeStyle;elbow=vertical;curved=0;rounded=0;" parent="1" edge="1">
          <mxGeometry x="0.0057" relative="1" as="geometry">
            <mxPoint x="260" y="565" as="targetPoint" />
            <Array as="points">
              <mxPoint x="135" y="565" />
            </Array>
            <mxPoint x="45" y="565" as="sourcePoint" />
            <mxPoint as="offset" />
          </mxGeometry>
        </mxCell>
        <mxCell id="nmwjDRBDZmFMRTuQTV6h-226" value="产生车况数据" style="html=1;align=left;spacingLeft=2;endArrow=block;rounded=0;edgeStyle=orthogonalEdgeStyle;curved=0;rounded=0;fontFamily=Helvetica;fontSize=12;fontColor=default;" parent="1" edge="1">
          <mxGeometry relative="1" as="geometry">
            <mxPoint x="512" y="609" as="sourcePoint" />
            <Array as="points">
              <mxPoint x="547" y="609" />
              <mxPoint x="547" y="639" />
            </Array>
            <mxPoint x="512" y="639" as="targetPoint" />
          </mxGeometry>
        </mxCell>
        <mxCell id="nmwjDRBDZmFMRTuQTV6h-227" value="" style="html=1;points=[];perimeter=orthogonalPerimeter;outlineConnect=0;targetShapes=umlLifeline;portConstraint=eastwest;newEdgeStyle={&quot;edgeStyle&quot;:&quot;elbowEdgeStyle&quot;,&quot;elbow&quot;:&quot;vertical&quot;,&quot;curved&quot;:0,&quot;rounded&quot;:0};" parent="1" vertex="1">
          <mxGeometry x="-151" y="241" width="10" height="360" as="geometry" />
        </mxCell>
        <mxCell id="nmwjDRBDZmFMRTuQTV6h-229" value="" style="html=1;points=[];perimeter=orthogonalPerimeter;outlineConnect=0;targetShapes=umlLifeline;portConstraint=eastwest;newEdgeStyle={&quot;edgeStyle&quot;:&quot;elbowEdgeStyle&quot;,&quot;elbow&quot;:&quot;vertical&quot;,&quot;curved&quot;:0,&quot;rounded&quot;:0};" parent="1" vertex="1">
          <mxGeometry x="-151" y="659" width="10" height="82" as="geometry" />
        </mxCell>
        <mxCell id="nmwjDRBDZmFMRTuQTV6h-230" value="返回" style="html=1;verticalAlign=bottom;endArrow=open;dashed=1;endSize=8;edgeStyle=elbowEdgeStyle;elbow=vertical;curved=0;rounded=0;" parent="1" edge="1">
          <mxGeometry relative="1" as="geometry">
            <mxPoint x="-314" y="579" as="targetPoint" />
            <Array as="points" />
            <mxPoint x="-153" y="579" as="sourcePoint" />
          </mxGeometry>
        </mxCell>
        <mxCell id="nmwjDRBDZmFMRTuQTV6h-233" value="" style="endArrow=classic;html=1;rounded=0;" parent="1" edge="1">
          <mxGeometry width="50" height="50" relative="1" as="geometry">
            <mxPoint x="-316" y="811" as="sourcePoint" />
            <mxPoint x="-156" y="811" as="targetPoint" />
          </mxGeometry>
        </mxCell>
        <mxCell id="nmwjDRBDZmFMRTuQTV6h-234" value="&lt;div style=&quot;text-align: left;&quot;&gt;获取车况时机&lt;/div&gt;1、首次进入车控页面&lt;br&gt;&lt;div style=&quot;text-align: left;&quot;&gt;2、车控页面下拉刷新&lt;/div&gt;" style="edgeLabel;html=1;align=center;verticalAlign=middle;resizable=0;points=[];" parent="nmwjDRBDZmFMRTuQTV6h-233" vertex="1" connectable="0">
          <mxGeometry x="-0.1703" y="2" relative="1" as="geometry">
            <mxPoint x="10" y="-3" as="offset" />
          </mxGeometry>
        </mxCell>
        <mxCell id="nmwjDRBDZmFMRTuQTV6h-235" value="" style="html=1;points=[];perimeter=orthogonalPerimeter;outlineConnect=0;targetShapes=umlLifeline;portConstraint=eastwest;newEdgeStyle={&quot;edgeStyle&quot;:&quot;elbowEdgeStyle&quot;,&quot;elbow&quot;:&quot;vertical&quot;,&quot;curved&quot;:0,&quot;rounded&quot;:0};" parent="1" vertex="1">
          <mxGeometry x="-151" y="801" width="10" height="60" as="geometry" />
        </mxCell>
        <mxCell id="nmwjDRBDZmFMRTuQTV6h-237" value="返回" style="html=1;verticalAlign=bottom;endArrow=open;dashed=1;endSize=8;edgeStyle=elbowEdgeStyle;elbow=vertical;curved=0;rounded=0;" parent="1" edge="1">
          <mxGeometry relative="1" as="geometry">
            <mxPoint x="-316" y="853" as="targetPoint" />
            <Array as="points" />
            <mxPoint x="-155" y="853" as="sourcePoint" />
          </mxGeometry>
        </mxCell>
        <mxCell id="nmwjDRBDZmFMRTuQTV6h-238" value="车控过程&lt;br&gt;当前实现" style="shape=umlFrame;whiteSpace=wrap;html=1;pointerEvents=0;sketch=0;strokeColor=default;align=center;verticalAlign=middle;fontFamily=Helvetica;fontSize=12;fontColor=default;fillColor=default;" parent="1" vertex="1">
          <mxGeometry x="-677" y="101" width="1370" height="800" as="geometry" />
        </mxCell>
        <mxCell id="nmwjDRBDZmFMRTuQTV6h-239" value="车况数据保存到数据库" style="html=1;align=left;spacingLeft=2;endArrow=block;rounded=0;edgeStyle=orthogonalEdgeStyle;curved=0;rounded=0;fontFamily=Helvetica;fontSize=12;fontColor=default;" parent="1" edge="1">
          <mxGeometry relative="1" as="geometry">
            <mxPoint x="-138" y="684" as="sourcePoint" />
            <Array as="points">
              <mxPoint x="-103" y="684" />
              <mxPoint x="-103" y="714" />
            </Array>
            <mxPoint x="-138" y="714" as="targetPoint" />
          </mxGeometry>
        </mxCell>
      </root>
    </mxGraphModel>
  </diagram>
</mxfile>
